<svg xmlns="http://www.w3.org/2000/svg" width="32" height="32" viewBox="0 0 258 226" version="1.1">
  <path d="M 100.416 9.917 C 100.187 10.146, 100 11.158, 100 12.167 C 100 13.175, 99.660 14, 99.244 14 C 98.828 14, 97.865 15.462, 97.102 17.250 C 96.340 19.038, 94.759 21.850, 93.588 23.500 C 92.417 25.150, 90.794 27.850, 89.981 29.500 C 89.168 31.150, 88.277 32.725, 88 33 C 87.723 33.275, 86.842 34.850, 86.042 36.500 C 85.241 38.150, 84.067 40.175, 83.433 41 C 82.799 41.825, 80.928 44.975, 79.276 48 C 77.623 51.025, 74.269 56.875, 71.821 61 C 69.373 65.125, 67.095 69.240, 66.757 70.144 C 66.420 71.049, 64.424 73.050, 62.322 74.593 C 60.220 76.135, 57.723 78.320, 56.772 79.449 L 55.044 81.500 55.022 85.527 C 54.986 92.146, 60.089 97, 67.082 97 L 70.264 97 73.632 93.429 L 77 89.858 77 82.929 L 77 76 78 76 C 78.550 76, 79 75.520, 79 74.933 C 79 74.347, 80.125 72.392, 81.500 70.589 C 82.875 68.786, 84 66.566, 84 65.656 C 84 64.745, 84.450 64, 85 64 C 85.550 64, 86 63.325, 86 62.500 C 86 61.675, 86.450 61, 87 61 C 87.550 61, 88 60.100, 88 59 C 88 57.900, 88.398 57, 88.883 57 C 89.369 57, 90.015 56.212, 90.319 55.250 C 90.877 53.484, 95.069 45.926, 96.005 45 C 96.283 44.725, 97.841 41.913, 99.467 38.750 C 101.092 35.587, 102.777 33, 103.211 33 C 103.645 33, 104 32.321, 104 31.491 C 104 30.662, 105.199 28.637, 106.665 26.991 L 109.331 24 151.165 24 L 193 24 193 22.469 C 193 21.626, 192.328 20.679, 191.506 20.364 C 190.684 20.048, 190.224 19.446, 190.484 19.026 C 190.744 18.605, 189.842 16.965, 188.480 15.380 C 187.117 13.796, 186.002 11.947, 186.001 11.271 L 186 10.042 143.416 9.771 C 119.995 9.622, 100.645 9.688, 100.416 9.917 M 172.979 58.545 L 169.458 60.031 167.729 64.022 C 165.622 68.887, 165.620 69.009, 167.558 73.854 L 169.116 77.748 172.808 79.624 C 176.434 81.467, 180 84.370, 180 85.480 C 180 85.789, 181.089 87.721, 182.419 89.771 C 186.309 95.767, 189.978 102.289, 191.128 105.250 C 191.715 106.763, 192.602 108, 193.098 108 C 193.594 108, 194 108.675, 194 109.500 C 194 110.325, 194.450 111, 195 111 C 195.550 111, 196 111.706, 196 112.570 C 196 113.433, 197.276 116.021, 198.836 118.320 C 200.396 120.619, 202.352 123.850, 203.183 125.500 C 204.013 127.150, 206.139 131.093, 207.906 134.263 L 211.118 140.025 209.059 142.917 C 207.927 144.507, 207 146.527, 207 147.404 C 207 148.282, 206.550 149, 206 149 C 205.450 149, 205 149.472, 205 150.048 C 205 150.624, 203.517 153.437, 201.705 156.298 C 199.892 159.159, 197.620 163.075, 196.657 165 C 195.693 166.925, 193.349 170.975, 191.448 174 C 189.548 177.025, 186.982 181.466, 185.746 183.869 C 184.511 186.272, 183.056 189.085, 182.513 190.119 C 181.970 191.154, 181.182 192, 180.763 192 C 180.343 192, 180 192.900, 180 194 C 180 195.100, 179.626 196, 179.169 196 C 178.712 196, 177.702 197.238, 176.925 198.750 C 176.149 200.262, 174.070 203.942, 172.307 206.927 C 170.543 209.911, 169.277 212.640, 169.494 212.990 C 169.710 213.340, 173.338 213.561, 177.556 213.482 L 185.225 213.337 186.863 210.418 C 187.763 208.813, 188.838 207.350, 189.250 207.167 C 189.662 206.983, 190 206.164, 190 205.345 C 190 204.527, 190.563 203.230, 191.250 202.463 C 194.361 198.995, 195 197.985, 195 196.542 C 195 195.694, 195.450 195, 196 195 C 196.550 195, 197 194.100, 197 193 C 197 191.900, 197.450 191, 198 191 C 198.550 191, 199 190.528, 199 189.952 C 199 189.376, 200.575 186.442, 202.500 183.433 C 204.425 180.423, 206 177.702, 206 177.385 C 206 177.068, 206.836 175.614, 207.857 174.154 C 208.878 172.694, 210.903 169.363, 212.357 166.750 C 213.811 164.137, 216.193 159.863, 217.652 157.250 C 219.110 154.637, 220.685 152.350, 221.152 152.167 C 221.618 151.983, 222 150.971, 222 149.917 C 222 148.862, 222.338 147.996, 222.750 147.992 C 223.768 147.982, 226 143.033, 226 140.787 C 226 139.154, 224.290 135.287, 222.998 134 C 222.723 133.725, 221.842 132.150, 221.042 130.500 C 220.241 128.850, 219.071 126.825, 218.442 126 C 217.812 125.175, 216.232 122.475, 214.930 120 C 213.629 117.525, 212.050 114.825, 211.422 114 C 210.794 113.175, 208.944 110.025, 207.311 107 C 205.678 103.975, 203.217 99.700, 201.842 97.500 C 200.468 95.300, 198.706 92.037, 197.928 90.250 C 197.149 88.463, 196.256 87, 195.943 87 C 195.629 87, 194.755 85.425, 194 83.500 C 193.245 81.575, 192.294 80, 191.887 80 C 191.480 80, 190.446 78.596, 189.590 76.881 L 188.034 73.761 188.904 72.206 L 189.774 70.652 188.805 67.576 C 186.519 60.327, 185.111 58.927, 178.706 57.537 C 177.493 57.274, 174.916 57.728, 172.979 58.545 M 14.349 101.750 C 13.389 103.813, 11.743 106.690, 10.692 108.145 L 8.780 110.789 11.743 116.145 C 13.372 119.090, 15.598 123.075, 16.688 125 C 17.779 126.925, 19.806 130.525, 21.194 133 C 26.509 142.479, 27.972 144.995, 30.446 148.915 C 31.851 151.140, 33 153.216, 33 153.528 C 33 153.841, 34.474 156.437, 36.276 159.298 C 38.077 162.159, 40.665 166.641, 42.026 169.259 C 43.387 171.876, 46.075 176.356, 48 179.214 L 51.500 184.412 89.530 184.587 L 127.561 184.762 131.474 187.418 L 135.388 190.074 138.411 189.410 C 140.074 189.045, 142.145 188.302, 143.014 187.759 C 145.620 186.132, 148 181.076, 147.999 177.169 L 147.998 173.500 144.661 169.750 L 141.323 166 137.308 166 L 133.292 166 130.595 168.500 L 127.897 171 94.103 171 L 60.310 171 58.655 169.171 C 57.745 168.165, 57 166.815, 57 166.171 C 57 165.527, 56.663 164.996, 56.250 164.992 C 55.837 164.988, 55.017 163.975, 54.427 162.742 C 51.638 156.919, 47.424 149.466, 46.750 149.167 C 46.337 148.983, 46 148.166, 46 147.350 C 46 146.534, 44.875 144.392, 43.500 142.589 C 42.125 140.786, 41 138.791, 41 138.156 C 41 137.520, 40.656 137, 40.236 137 C 39.816 137, 38.689 135.313, 37.731 133.250 C 35.921 129.350, 33.898 125.860, 32.948 125 C 32.644 124.725, 31.620 122.832, 30.671 120.792 C 29.723 118.753, 28.501 116.810, 27.957 116.473 C 27.413 116.137, 27.226 115.443, 27.543 114.931 C 27.859 114.419, 27.663 114, 27.106 114 C 26.549 114, 25.314 112.313, 24.361 110.250 C 23.408 108.188, 21.812 105.427, 20.814 104.115 C 19.816 102.803, 19 100.891, 19 99.865 C 19 96.674, 16.179 97.817, 14.349 101.750" stroke="none" fill="#05a1e6" fill-rule="evenodd"/>
  <path d="M 68.941 7.698 L 66.382 8.096 63.227 14.298 C 61.491 17.709, 58.268 23.650, 56.065 27.500 C 53.861 31.350, 51.732 35.175, 51.333 36 C 50.934 36.825, 47.265 43.125, 43.180 50 C 32.384 68.172, 31.943 68.930, 28.408 75.426 L 25.183 81.352 26.158 83.926 C 26.694 85.342, 30.363 91.900, 34.310 98.500 C 38.257 105.100, 42.165 111.709, 42.994 113.186 C 43.822 114.664, 48.212 122.301, 52.750 130.158 L 61 144.443 61 149.754 C 61 152.674, 61.640 156.595, 62.421 158.466 L 63.842 161.867 66.872 163.434 C 71.169 165.656, 75.681 165.377, 80.427 162.596 L 84.529 160.192 85.836 156.577 L 87.143 152.963 85.948 149.231 C 84.493 144.684, 81.295 141, 78.805 141 L 76.959 141 73.729 136.422 C 71.953 133.905, 69.325 129.742, 67.889 127.172 C 66.454 124.603, 60.716 114.533, 55.139 104.796 L 45 87.091 45 83.288 L 45 79.484 47.622 74.492 C 49.064 71.746, 52.541 65.675, 55.349 61 C 58.157 56.325, 61.174 51.150, 62.053 49.500 C 64.133 45.598, 78.284 21.806, 81.979 16 C 83.554 13.525, 84.878 10.775, 84.921 9.889 L 85 8.279 79.750 7.648 C 74.375 7.002, 73.381 7.007, 68.941 7.698 M 95.513 17.187 C 92.946 22.239, 91.481 25.846, 92.258 25.201 C 93.035 24.556, 94.752 21.884, 96.072 19.264 C 97.393 16.644, 98.765 14.275, 99.121 14 C 99.477 13.725, 99.939 12.600, 100.148 11.500 C 100.357 10.400, 100.859 9.613, 101.264 9.750 C 101.669 9.887, 120.900 10, 144 10 L 186 10 186.001 11.250 C 186.002 11.938, 187.117 13.796, 188.480 15.380 C 189.842 16.965, 190.744 18.605, 190.484 19.026 C 190.224 19.446, 190.684 20.048, 191.506 20.364 C 192.328 20.679, 193 21.621, 193 22.457 L 193 23.976 154.750 24.250 L 116.500 24.524 155.191 24.762 L 193.882 25 194.469 24.049 C 195.108 23.015, 193.061 18.907, 188.589 12.250 L 185.734 8 142.957 8 L 100.181 8 95.513 17.187 M 106.665 26.991 C 105.199 28.637, 104 30.662, 104 31.491 C 104 32.321, 103.645 33, 103.211 33 C 102.777 33, 101.092 35.587, 99.467 38.750 C 97.841 41.913, 96.283 44.725, 96.005 45 C 95.551 45.449, 93.603 48.858, 90.574 54.500 C 89.983 55.600, 89.108 56.785, 88.628 57.134 C 88.149 57.483, 87.932 58.295, 88.146 58.939 C 88.361 59.582, 90.734 56.372, 93.420 51.804 C 96.105 47.237, 100.743 39.364, 103.726 34.310 L 109.150 25.120 111.325 24.696 L 113.500 24.272 111.415 24.136 L 109.331 24 106.665 26.991 M 88.641 30.031 C 87.676 31.664, 87.250 32.996, 87.693 32.992 C 88.514 32.984, 91.220 27.887, 90.687 27.354 C 90.526 27.193, 89.606 28.398, 88.641 30.031 M 108.792 36.223 C 107.136 37.996, 105.414 40.411, 104.966 41.590 C 103.881 44.444, 105.247 50.134, 107.919 53.886 L 110.083 56.925 113.577 57.580 C 118.093 58.428, 122.456 57.523, 125.989 55.008 L 128.809 53 160.230 53 L 191.651 53 193.709 55.250 C 194.840 56.487, 196.606 59.021, 197.633 60.881 C 198.660 62.740, 199.962 64.990, 200.526 65.881 C 201.090 66.771, 203.565 71.006, 206.026 75.290 C 208.487 79.575, 211.400 84.599, 212.500 86.455 C 215.233 91.067, 225.439 109.126, 229.596 116.707 C 231.468 120.121, 233 123.560, 233 124.350 C 233 125.697, 235.008 127, 237.082 127 C 237.587 127, 238 126.330, 238 125.511 C 238 124.691, 239.799 121.429, 241.999 118.261 C 244.198 115.092, 245.998 112.164, 245.999 111.752 C 245.999 111.341, 244.473 108.866, 242.606 106.252 C 240.739 103.639, 238.313 99.925, 237.215 98 C 236.117 96.075, 230.180 85.725, 224.020 75 C 217.861 64.275, 211.036 52.125, 208.853 48 C 206.671 43.875, 203.961 39.712, 202.832 38.750 L 200.778 37 164.639 36.996 L 128.500 36.993 125.226 34.996 L 121.952 33 116.877 33 L 111.802 33 108.792 36.223 M 84.029 38.162 C 82.749 40.439, 82.191 42, 82.788 41.631 C 83.983 40.893, 87.203 34.870, 86.682 34.349 C 86.503 34.169, 85.309 35.885, 84.029 38.162 M 79.500 46 C 78.647 47.650, 78.174 49, 78.449 49 C 78.724 49, 79.647 47.650, 80.500 46 C 81.353 44.350, 81.826 43, 81.551 43 C 81.276 43, 80.353 44.350, 79.500 46 M 76.039 52.295 C 72.701 57.608, 70.835 61, 71.252 61 C 71.889 61, 78.146 50.812, 77.751 50.417 C 77.571 50.238, 76.801 51.083, 76.039 52.295 M 170.888 58.500 C 168.471 59.813, 165.147 65.480, 166.184 66.518 C 166.434 66.767, 167.247 65.420, 167.991 63.524 L 169.343 60.077 172.922 58.590 C 174.890 57.772, 175.825 57.098, 175 57.092 C 174.175 57.085, 172.325 57.719, 170.888 58.500 M 181.840 58.361 C 185.415 59.656, 186.830 61.452, 188.645 67 L 189.790 70.500 189.895 68.151 C 190.143 62.598, 185.118 56.856, 180.203 57.076 C 179.266 57.118, 180.003 57.696, 181.840 58.361 M 86 62.417 C 86 63.196, 85.483 64.006, 84.850 64.217 C 84.218 64.427, 83.886 65.157, 84.112 65.837 L 84.525 67.074 86.319 64.037 L 88.113 61 87.057 61 C 86.475 61, 86 61.638, 86 62.417 M 68.500 65 C 67.647 66.650, 67.174 68, 67.449 68 C 67.724 68, 68.647 66.650, 69.500 65 C 70.353 63.350, 70.826 62, 70.551 62 C 70.276 62, 69.353 63.350, 68.500 65 M 81.188 70.960 C 79.985 72.587, 79 74.387, 79 74.960 C 79 75.532, 78.550 76, 78 76 L 77 76 77 82.929 L 77 89.858 73.632 93.429 L 70.264 97 67.082 97 C 63.529 97, 59.073 94.998, 56.961 92.452 C 56.194 91.529, 55.274 88.687, 54.917 86.137 L 54.267 81.500 54.134 85.905 L 54 90.310 58.042 94.155 L 62.084 98 66.314 98 L 70.544 98 74.272 94.927 L 78 91.854 78 85.062 L 78 78.270 79.790 75.885 C 81.516 73.585, 84.262 68, 83.667 68 C 83.507 68, 82.391 69.332, 81.188 70.960 M 63.796 71.780 C 62.368 73.276, 59.805 75.547, 58.100 76.826 C 56.395 78.105, 55 79.596, 55 80.139 C 55 80.682, 56.237 79.990, 57.750 78.602 C 59.263 77.214, 62.075 74.748, 63.999 73.122 C 65.924 71.496, 67.250 69.917, 66.946 69.612 C 66.642 69.308, 65.225 70.284, 63.796 71.780 M 166.052 72.316 C 166.023 73.314, 166.443 74.959, 166.984 75.970 C 168.107 78.068, 178 84.453, 178 83.080 C 178 82.584, 176.015 81.217, 173.588 80.043 L 169.177 77.907 167.640 74.204 L 166.103 70.500 166.052 72.316 M 188.726 72.272 C 188.085 73.942, 190.562 80, 191.887 80 C 192.294 80, 193.245 81.575, 194 83.500 C 194.755 85.425, 195.629 87, 195.943 87 C 196.256 87, 197.149 88.463, 197.928 90.250 C 198.706 92.037, 200.468 95.300, 201.842 97.500 C 203.217 99.700, 205.678 103.975, 207.311 107 C 208.944 110.025, 210.794 113.175, 211.422 114 C 212.050 114.825, 213.629 117.525, 214.930 120 C 216.232 122.475, 217.812 125.175, 218.442 126 C 219.071 126.825, 220.241 128.850, 221.042 130.500 C 221.842 132.150, 222.723 133.725, 222.998 134 C 224.290 135.287, 226 139.154, 226 140.787 C 226 143.033, 223.768 147.982, 222.750 147.992 C 222.338 147.996, 222 148.863, 222 149.917 C 222 150.971, 221.618 151.983, 221.152 152.167 C 220.685 152.350, 219.110 154.637, 217.652 157.250 C 216.193 159.863, 213.811 164.137, 212.357 166.750 C 210.903 169.363, 208.878 172.694, 207.857 174.154 C 206.836 175.614, 206 177.068, 206 177.385 C 206 177.702, 204.425 180.423, 202.500 183.433 C 200.575 186.442, 199 189.376, 199 189.952 C 199 190.528, 198.550 191, 198 191 C 197.450 191, 197 191.900, 197 193 C 197 194.100, 196.550 195, 196 195 C 195.450 195, 195 195.694, 195 196.542 C 195 197.985, 194.361 198.995, 191.250 202.463 C 190.563 203.230, 190 204.527, 190 205.345 C 190 206.164, 189.662 206.983, 189.250 207.167 C 188.838 207.350, 187.763 208.813, 186.863 210.418 L 185.225 213.337 177.556 213.482 C 173.338 213.561, 169.710 213.340, 169.494 212.990 C 169.277 212.640, 170.543 209.911, 172.307 206.927 C 174.070 203.942, 176.149 200.262, 176.925 198.750 C 177.702 197.238, 178.712 196, 179.169 196 C 179.626 196, 180 195.100, 180 194 C 180 192.900, 180.398 192, 180.883 192 C 181.369 192, 182.039 191.213, 182.372 190.250 C 182.704 189.287, 183.849 187.150, 184.915 185.500 C 185.981 183.850, 186.882 182.050, 186.917 181.500 C 186.952 180.950, 185.185 183.331, 182.990 186.790 C 180.796 190.250, 179 193.443, 179 193.885 C 179 194.328, 178.100 195.505, 177 196.500 C 175.900 197.495, 175 198.945, 175 199.722 C 175 200.498, 173.875 202.608, 172.500 204.411 C 171.125 206.214, 170 208.209, 170 208.844 C 170 209.480, 169.520 210, 168.934 210 C 168.347 210, 168.010 211.229, 168.184 212.731 L 168.500 215.462 177 215.139 C 185.696 214.809, 187.527 214.114, 189.117 210.541 C 189.616 209.418, 190.996 206.925, 192.183 205 C 193.370 203.075, 196.108 198.125, 198.267 194 C 202.414 186.077, 207.251 177.555, 211.974 169.850 C 213.542 167.292, 216.039 163.017, 217.523 160.350 C 219.007 157.682, 221.972 152.496, 224.111 148.826 C 226.250 145.155, 228 141.682, 228 141.109 C 228 139.402, 224.696 133, 223.815 133 C 223.367 133, 223 132.100, 223 131 C 223 129.900, 222.633 129, 222.185 129 C 221.737 129, 220.615 127.537, 219.691 125.750 C 218.768 123.963, 217.600 121.825, 217.097 121 C 215.985 119.179, 207.969 105.289, 206.420 102.500 C 205.809 101.400, 204.353 98.925, 203.184 97 C 202.015 95.075, 200.380 92.150, 199.550 90.500 C 198.043 87.505, 197.083 85.910, 193.713 80.797 C 192.729 79.306, 191.346 76.412, 190.637 74.366 L 189.350 70.647 188.726 72.272 M 179.006 84.731 C 179.003 85.407, 180.575 88.423, 182.500 91.433 C 184.425 94.442, 186 97.125, 186 97.395 C 186 98.518, 190.288 105.046, 190.733 104.600 C 191 104.333, 190.269 102.782, 189.109 101.153 C 187.949 99.524, 187 97.914, 187 97.576 C 187 97.237, 185.794 95.057, 184.320 92.730 C 182.846 90.404, 181.049 87.375, 180.326 86 C 179.603 84.625, 179.010 84.054, 179.006 84.731 M 14.378 97.750 C 13.315 101.075, 11.532 104.511, 9.270 107.595 L 6.999 110.690 8.551 113.595 C 9.405 115.193, 11.213 118.300, 12.569 120.500 C 13.925 122.700, 15.482 125.400, 16.028 126.500 C 16.574 127.600, 18.149 130.300, 19.528 132.500 C 20.907 134.700, 22.449 137.469, 22.956 138.653 C 23.932 140.935, 26 142.706, 26 141.259 C 26 140.787, 25.591 139.972, 25.092 139.450 C 24.593 138.927, 22.944 136.250, 21.428 133.500 C 19.911 130.750, 17.779 126.925, 16.688 125 C 15.598 123.075, 13.372 119.090, 11.743 116.145 L 8.780 110.789 10.692 108.145 C 11.743 106.690, 13.389 103.813, 14.349 101.750 C 16.179 97.817, 19 96.674, 19 99.865 C 19 100.891, 19.816 102.803, 20.814 104.115 C 21.812 105.427, 23.408 108.188, 24.361 110.250 C 25.314 112.313, 26.549 114, 27.106 114 C 27.663 114, 27.859 114.419, 27.543 114.931 C 27.226 115.443, 27.413 116.137, 27.957 116.473 C 28.501 116.810, 29.723 118.753, 30.671 120.792 C 31.620 122.832, 32.644 124.725, 32.948 125 C 33.898 125.860, 35.921 129.350, 37.731 133.250 C 38.689 135.313, 39.816 137, 40.236 137 C 40.656 137, 41 137.520, 41 138.156 C 41 138.791, 42.125 140.786, 43.500 142.589 C 44.875 144.392, 46 146.534, 46 147.350 C 46 148.166, 46.337 148.983, 46.750 149.167 C 47.424 149.466, 51.638 156.919, 54.427 162.742 C 55.017 163.975, 55.837 164.988, 56.250 164.992 C 56.663 164.996, 57 165.605, 57 166.345 C 57 167.085, 57.823 168.435, 58.829 169.345 L 60.657 171 94.277 171 L 127.897 171 130.595 168.500 C 132.078 167.125, 132.846 166, 132.301 166 C 131.756 166, 130.495 166.900, 129.500 168 L 127.690 170 94.014 170 L 60.338 170 58.921 167.250 C 58.141 165.738, 57.277 164.275, 57.002 164 C 56.398 163.398, 55.063 161.030, 50.668 152.759 C 46.275 144.493, 44.734 141.806, 43.351 140 C 42.146 138.426, 40.594 135.706, 34.794 125 C 30.713 117.467, 27.473 111.743, 24.891 107.500 C 23.886 105.850, 22.139 102.588, 21.007 100.250 L 18.950 96 16.944 96 C 15.840 96, 14.686 96.787, 14.378 97.750 M 193.681 111.037 L 195.475 114.074 195.888 112.837 C 196.114 112.157, 195.782 111.427, 195.150 111.217 C 194.518 111.006, 194 110.196, 194 109.417 C 194 108.638, 193.525 108, 192.943 108 L 191.887 108 193.681 111.037 M 199.133 120.500 C 203.348 128.299, 207 133.772, 207 132.291 C 207 131.646, 206.638 130.894, 206.194 130.620 C 205.751 130.346, 204.167 127.732, 202.673 124.811 C 201.179 121.890, 199.042 118.375, 197.923 117 L 195.890 114.500 199.133 120.500 M 179.844 126.255 C 176.043 129.469, 175 132.108, 175 138.516 L 175 144.163 164.862 161.832 C 159.286 171.549, 153.943 180.625, 152.989 182 C 152.034 183.375, 149.868 187.256, 148.176 190.624 C 146.483 193.992, 144.364 197.030, 143.467 197.374 C 142.570 197.718, 122.748 198, 99.418 198 L 57 198 57 198.941 C 57 199.459, 57.460 200.166, 58.022 200.514 C 58.585 200.861, 60.348 203.727, 61.941 206.883 C 63.534 210.038, 65.618 213.268, 66.572 214.060 L 68.307 215.500 107.185 215.855 C 128.568 216.051, 147.599 215.923, 149.476 215.570 L 152.888 214.930 154.260 212.215 C 155.015 210.722, 156.116 208.600, 156.708 207.500 C 157.300 206.400, 158.288 204.375, 158.903 203 C 159.518 201.625, 160.889 199.150, 161.949 197.500 C 163.010 195.850, 166.205 190.225, 169.049 185 C 179.567 165.680, 189.368 149.868, 192.391 147.347 C 196.548 143.878, 197.922 141.253, 197.965 136.700 C 198.034 129.234, 193.013 123.994, 185.800 124.005 L 182.500 124.010 179.844 126.255 M 208.499 136.998 L 210.049 139.996 208.410 142.498 C 207.508 143.874, 206.995 145, 207.270 145 C 207.545 145, 208.508 143.874, 209.410 142.498 L 211.049 139.996 209.499 136.998 C 208.646 135.349, 207.724 134, 207.449 134 C 207.174 134, 207.646 135.349, 208.499 136.998 M 26.022 143.346 C 26.010 143.811, 26.824 145.386, 27.832 146.846 C 30.610 150.873, 46 177.759, 46 178.586 C 46 178.985, 47.148 180.816, 48.551 182.656 L 51.102 186 89.428 186 L 127.755 186 128.958 187.449 C 129.619 188.246, 131.699 189.406, 133.580 190.026 L 137 191.155 140.511 189.996 C 142.442 189.359, 145.142 187.369, 146.511 185.574 L 149 182.311 149 177.274 L 149 172.237 145.822 169.130 C 141.671 165.072, 141.019 165.803, 144.950 170.106 L 148 173.446 148 177.142 C 148 181.072, 145.626 186.128, 143.014 187.759 C 142.145 188.302, 140.074 189.045, 138.411 189.410 L 135.388 190.074 131.474 187.418 L 127.561 184.762 89.530 184.587 L 51.500 184.412 48 179.214 C 46.075 176.356, 43.387 171.876, 42.026 169.259 C 40.665 166.641, 38.174 162.250, 36.490 159.500 C 34.806 156.750, 32.575 152.851, 31.533 150.835 C 29.323 146.564, 26.054 142.121, 26.022 143.346 M 204.354 149.676 C 203.201 151.779, 199.236 158.675, 195.543 165 C 187.142 179.391, 186.813 180, 187.456 180 C 187.975 180, 192.593 172.440, 196.500 165.192 C 197.600 163.152, 199.963 159.117, 201.750 156.226 C 203.537 153.335, 205 150.564, 205 150.068 C 205 149.572, 205.518 148.994, 206.150 148.783 C 206.782 148.572, 207.109 147.827, 206.875 147.126 L 206.450 145.851 204.354 149.676" stroke="none" fill="#0f6593" fill-rule="evenodd"/>
</svg>
